<svg xmlns="http://www.w3.org/2000/svg" xmlns:xlink="http://www.w3.org/1999/xlink" fill="none" version="1.1" width="64" height="64" viewBox="0 0 64 64"><defs><clipPath id="master_svg0_1_0004"><rect x="0" y="0" width="64" height="64" rx="0"/></clipPath><clipPath id="master_svg1_1_19"><rect x="11" y="11" width="42" height="41" rx="0"/></clipPath></defs><g style="mix-blend-mode:passthrough" clip-path="url(#master_svg0_1_0004)"><g clip-path="url(#master_svg1_1_19)"><g><path d="M45.692,18.6054847559375L34.982,18.6054847559375C35.297,19.8354855859375,35.591,20.9629855859375,35.843,22.0904855859375C35.9007,22.4385855859375,36.196600000000004,22.701925585937502,36.557,22.7259855859375L45.146,24.5709855859375C46.2659,24.7200155859375,47.0641,25.707575585937498,46.952,26.8054855859375L46.952,36.1534755859375C47.0633,37.2583755859375,46.2534,38.2489755859375,45.125,38.3879755859375L36.473,40.2534755859375C36.263000000000005,40.2534755859375,35.989999999999995,40.4379755859375,35.927,40.601975585937495C35.57,41.8114755859375,35.275999999999996,43.041475585937505,34.94,44.3534755859375L45.65,44.3534755859375C49.7766,44.537775585937496,53.177,41.2278755859375,53,37.198975585937504L53,25.7394855859375C53.1625,21.7356155859375,49.7935,18.4468465859375,45.692,18.6054847559375ZM27.506,40.2534755859375L18.854,38.3674755859375C17.76045,38.2191755859375,16.97126,37.2696755859375,17.048000000000002,36.1944755859375L17.048000000000002,26.7849855859375C16.94871,25.687665585937502,17.75555,24.7099155859375,18.875,24.5709855859375L27.464,22.7054855859375C27.674,22.7054855859375,28.01,22.5004855859375,28.052,22.3364855859375C28.409,21.1269855859375,28.703,19.8969855859375,29.018,18.6464846859375L17.698999999999998,18.6464846859375C14.05879,18.7831065859375,11.139954,21.6324455859375,11,25.1859855859375L11,37.6499755859375C11.0570674,41.3528755859375,14.13647,44.3315755859375,17.93,44.3534755859375L29.039,44.3534755859375C28.703,43.0824755859375,28.43,41.8524755859375,28.073,40.663475585937505C27.9548,40.452175585937496,27.7475,40.3022755859375,27.506,40.2534755859375Z" fill="#3E4055" fill-opacity="1"/></g><g><path d="M36.30498779296875,31.500017578125C36.30498779296875,31.151518578125,36.30498779296875,30.905517578125,35.80098779296875,30.905517578125L28.21998779296875,30.905517578125C27.79998779296875,30.905517578125,27.79998779296875,31.151518578125,27.79998779296875,31.500017578125C27.79998779296875,31.848516578125,27.79998779296875,32.074017578125,28.32498779296875,32.053517578125L35.86398779296875,32.053517578125C36.19998779296875,32.053517578125,36.325987792968746,31.869017578125,36.30498779296875,31.500017578125Z" fill="#3E4055" fill-opacity="1"/></g></g></g></svg>