<svg xmlns="http://www.w3.org/2000/svg" xmlns:xlink="http://www.w3.org/1999/xlink" fill="none" version="1.1" width="64" height="64" viewBox="0 0 64 64"><defs><clipPath id="master_svg0_1_0425"><rect x="0" y="0" width="64" height="64" rx="0"/></clipPath><clipPath id="master_svg1_1_34"><rect x="7" y="7" width="49" height="49" rx="0"/></clipPath></defs><g style="mix-blend-mode:passthrough" clip-path="url(#master_svg0_1_0425)"><g clip-path="url(#master_svg1_1_34)"><g><path d="M18.92913818359375,37.5145576171875L23.09812818359375,26.6590576171875L24.64560818359375,26.6590576171875L29.08833818359375,37.5145576171875L27.45185818359375,37.5145576171875L26.18582818359375,34.2262076171875L21.64640818359375,34.2262076171875L20.45436818359375,37.5145576171875L18.92913818359375,37.5145576171875ZM22.06132818359375,33.0568976171875L25.74141818359375,33.0568976171875L24.60836818359375,30.0504476171875Q24.08996818359375,28.6828676171875,23.83849818359375,27.7993576171875C23.69760818359375,28.5045476171875,23.50196818359375,29.1976876171875,23.25336818359375,29.8724876171875L22.06132818359375,33.0568976171875ZM30.23583818359375,37.5145576171875L30.23583818359375,26.6590589915975L34.33083818359375,26.6590589915975Q35.41163818359375,26.6590589915975,35.982338183593754,26.7625466171875Q36.78213818359375,26.8960156171875,37.32233818359375,27.2698286171875Q37.86253818359375,27.6436416171875,38.19273818359375,28.3177576171875C38.415138183593754,28.7793876171875,38.52783818359375,29.2861376171875,38.52213818359375,29.7984976171875Q38.52213818359375,31.1830076171875,37.64103818359375,32.1419576171875Q36.759938183593746,33.1009076171875,34.45703818359375,33.1009076171875L31.672638183593747,33.1009076171875L31.672638183593747,37.5141576171875L30.23583818359375,37.5141576171875L30.23583818359375,37.5145576171875ZM31.672638183593747,31.8203676171875L34.47743818359375,31.8203676171875Q35.86963818359375,31.8203676171875,36.45433818359375,31.3019676171875Q37.03893818359375,30.7835676171875,37.04083818359375,29.8434676171875Q37.04083818359375,29.1625776171875,36.696538183593745,28.6770676171875C36.47963818359375,28.3628076171875,36.15813818359375,28.1358676171875,35.78933818359375,28.0367976171875Q35.42663818359375,27.9400776171875,34.44883818359375,27.9400776171875L31.672638183593747,27.9400776171875L31.672638183593747,31.8203676171875ZM40.59523818359375,37.5145576171875L40.59523818359375,26.6590589915975L42.03193818359375,26.6590589915975L42.03193818359375,37.5145576171875L40.59523818359375,37.5145576171875Z" fill="#231815" fill-opacity="1"/></g><g><path d="M42.9807,47.3589123046875L31.5043,47.3589123046875C30.8005,47.3453123046875,30.2371,46.7709123046875,30.2371,46.0670123046875C30.2371,45.3631123046875,30.8005,44.7887123046875,31.5043,44.7751123046875L42.9807,44.7751123046875C48.7398,44.7751123046875,53.4262,40.0896123046875,53.4262,34.3296123046875C53.4262,29.0706123046875,49.4971,24.6154123046875,44.2864,23.966412304687502L43.3676,23.8518123046875L43.1814,22.9441123046875C42.1112,17.7310423046875,37.465,13.9493923046875,32.1339,13.9493923046875C25.915,13.9493923046875,20.8557,19.0086723046875,20.8557,25.2276123046875C20.8557,25.3538123046875,20.8586,25.4882123046875,20.8644,25.651212304687498L20.917099999999998,27.135312304687503L19.4378,26.9815123046875C19.1264,26.9493123046875,18.814700000000002,26.9332123046875,18.503999999999998,26.9332123046875C13.58547,26.9332123046875,9.5838,30.9349123046875,9.5838,35.853412304687495C9.5838,40.7720123046875,13.58547,44.7736123046875,18.503999999999998,44.7736123046875L21.612000000000002,44.7736123046875C22.3158,44.7872123046875,22.8792,45.3616123046875,22.8792,46.0655123046875C22.8792,46.7694123046875,22.3158,47.3438123046875,21.612000000000002,47.3574123046875L18.503999999999998,47.3574123046875C12.16083,47.3589123046875,7.00193436,42.1981123046875,7.00193436,35.8549123046875C7.00193436,29.5808123046875,12.05057,24.4640123046875,18.2985,24.3528123046875C18.6278,19.1569423046875,21.8405,14.5836723046875,26.6167,12.5117623046875C31.393,10.4398563046875,36.9274,11.2186683046875,40.9463,14.5282523046875C43.1477,16.3454623046875,44.7372,18.7955823046875,45.4992,21.5465123046875C51.5499,22.7313123046875,56.0081,28.0749123046875,56.0081,34.3306123046875C56.0075,41.5261123046875,50.1751,47.3589123046875,42.9807,47.3589123046875Z" fill="#231815" fill-opacity="1"/></g><g><path d="M34.45077314453125,51.6348828125C34.12764314453125,51.6355828125,33.81606314453125,51.5147828125,33.57790314453125,51.2963828125L27.94122314453125,46.1258428125L33.27711314453125,40.5684768125C33.77483314453125,40.0733308125,34.57684314453125,40.0661978125,35.083293144531254,40.5524098125C35.58974314453125,41.0386228125,35.61529314453125,41.8402628125,35.14085314453125,42.3577428125L31.63630314453125,46.0083328125L35.32413314453125,49.3910228125C35.71634314453125,49.751222812500004,35.84741314453125,50.3151828125,35.65426314453125,50.8113828125C35.46110314453125,51.3076828125,34.98329314453125,51.6345828125,34.45077314453125,51.6348828125Z" fill="#231815" fill-opacity="1"/></g></g></g></svg>