<svg xmlns="http://www.w3.org/2000/svg" xmlns:xlink="http://www.w3.org/1999/xlink" fill="none" version="1.1" width="64" height="64" viewBox="0 0 64 64"><defs><clipPath id="master_svg0_1_593"><rect x="0" y="0" width="64" height="64" rx="0"/></clipPath><clipPath id="master_svg1_1_06"><rect x="9" y="9" width="45" height="45" rx="0"/></clipPath></defs><g style="mix-blend-mode:passthrough" clip-path="url(#master_svg0_1_593)"><g clip-path="url(#master_svg1_1_06)"><g><path d="M43.71677177734375,37.432547607421874C43.62007177734375,37.432547607421874,43.523371777343755,37.42374760742187,43.42667177734375,37.415047607421876C43.32997177734375,37.406247607421875,43.23337177734375,37.38864760742187,43.13667177734375,37.37104760742187C43.03997177734375,37.35344760742187,42.94327177734375,37.32714760742188,42.85537177734375,37.300747607421876C42.75877177734375,37.27434760742187,42.67087177734375,37.23924760742187,42.58297177734375,37.20404760742187C42.49507177734375,37.16894760742187,42.40717177734375,37.12494760742187,42.31927177734375,37.08104760742188C42.23137177734375,37.037047607421876,42.15227177734375,36.984347607421874,42.073171777343745,36.93164760742188C41.99407177734375,36.878847607421875,41.91497177734375,36.81734760742188,41.835871777343755,36.75584760742187C41.68117177734375,36.63624760742188,41.542371777343746,36.497447607421876,41.422771777343755,36.34274760742187C41.361271777343745,36.26364760742187,41.29977177734375,36.19334760742187,41.246971777343745,36.10544760742188C41.19427177734375,36.026347607421876,41.14157177734375,35.93844760742188,41.097571777343745,35.859347607421874C41.05367177734375,35.77144760742188,41.009671777343755,35.68354760742187,40.974571777343755,35.595647607421874C40.93937177734375,35.50774760742188,40.90427177734375,35.411147607421874,40.87787177734375,35.32324760742188C40.85147177734375,35.23534760742187,40.825171777343755,35.13864760742187,40.80757177734375,35.041947607421875C40.78997177734375,34.94524760742188,40.77237177734375,34.848647607421874,40.76357177734375,34.751947607421876C40.75477177734375,34.65524760742187,40.74607177734375,34.55854760742187,40.74607177734375,34.46184760742187C40.74607177734375,34.36524760742188,40.75477177734375,34.26854760742188,40.76357177734375,34.171847607421874C40.77237177734375,34.075147607421876,40.78997177734375,33.97844760742187,40.80757177734375,33.881847607421875C40.825171777343755,33.78514760742188,40.85147177734375,33.68844760742188,40.87787177734375,33.60054760742187C40.90427177734375,33.503847607421875,40.93937177734375,33.41594760742187,40.974571777343755,33.32804760742188C41.009671777343755,33.24024760742188,41.05367177734375,33.15234760742187,41.097571777343745,33.064447607421876C41.14157177734375,32.97654760742188,41.19427177734375,32.897447607421874,41.246971777343745,32.81834760742187C41.29977177734375,32.73924760742187,41.361271777343745,32.66014760742188,41.422771777343755,32.58104760742188C41.542371777343746,32.426347607421874,41.68117177734375,32.28754760742187,41.835871777343755,32.16794760742188C41.91497177734375,32.10644760742187,41.985271777343755,32.04484760742187,42.073171777343745,31.992147607421874C42.15227177734375,31.939447607421876,42.24017177734375,31.886647607421875,42.31927177734375,31.842747607421874C42.40717177734375,31.798747607421873,42.49507177734375,31.754847607421876,42.58297177734375,31.719647607421877C42.67087177734375,31.684547607421877,42.76747177734375,31.649347607421873,42.85537177734375,31.623047607421874C42.95207177734375,31.596647607421875,43.03997177734375,31.570247607421877,43.13667177734375,31.552747607421875C43.23337177734375,31.535147607421877,43.32997177734375,31.517547607421875,43.42667177734375,31.508747607421874C43.523371777343755,31.499947607421873,43.62007177734375,31.491147607421876,43.71677177734375,31.491147607421876C43.81337177734375,31.491147607421876,43.910071777343745,31.499947607421873,44.00677177734375,31.508747607421874C44.10347177734375,31.517547607421875,44.200171777343755,31.535147607421877,44.29677177734375,31.552747607421875C44.39347177734375,31.570247607421877,44.49017177734375,31.596647607421875,44.57807177734375,31.623047607421874C44.67477177734375,31.649347607421873,44.762671777343755,31.684547607421877,44.850571777343745,31.719647607421877C44.93837177734375,31.754847607421876,45.02627177734375,31.798747607421873,45.11417177734375,31.842747607421874C45.20207177734375,31.886647607421875,45.28117177734375,31.939447607421876,45.360271777343755,31.992147607421874C45.43937177734375,32.04484760742187,45.51847177734375,32.10644760742187,45.597571777343745,32.16794760742188C45.75227177734375,32.28754760742187,45.891071777343754,32.426347607421874,46.010671777343745,32.58104760742188C46.07217177734375,32.66014760742188,46.13377177734375,32.73044760742188,46.18647177734375,32.81834760742187C46.23917177734375,32.897447607421874,46.29197177734375,32.98534760742187,46.33587177734375,33.064447607421876C46.37987177734375,33.15234760742187,46.42377177734375,33.24024760742188,46.45887177734375,33.32804760742188C46.49407177734375,33.41594760742187,46.52927177734375,33.512647607421876,46.55557177734375,33.60054760742187C46.58197177734375,33.69724760742187,46.60837177734375,33.78514760742188,46.62587177734375,33.881847607421875C46.64347177734375,33.97844760742187,46.66107177734375,34.075147607421876,46.66987177734375,34.171847607421874C46.67867177734375,34.26854760742188,46.68747177734375,34.36524760742188,46.68747177734375,34.46184760742187C46.68747177734375,34.55854760742187,46.67867177734375,34.65524760742187,46.66987177734375,34.751947607421876C46.66107177734375,34.848647607421874,46.64347177734375,34.94524760742188,46.62587177734375,35.041947607421875C46.60837177734375,35.13864760742187,46.58197177734375,35.23534760742187,46.55557177734375,35.32324760742188C46.52927177734375,35.411147607421874,46.49407177734375,35.50774760742188,46.45887177734375,35.595647607421874C46.42377177734375,35.68354760742187,46.37987177734375,35.77144760742188,46.33587177734375,35.859347607421874C46.29197177734375,35.94724760742187,46.23917177734375,36.026347607421876,46.18647177734375,36.10544760742188C46.13377177734375,36.18454760742188,46.07217177734375,36.26364760742187,46.010671777343745,36.34274760742187C45.891071777343754,36.497447607421876,45.75227177734375,36.63624760742188,45.597571777343745,36.75584760742187C45.51847177734375,36.81734760742188,45.448171777343745,36.878847607421875,45.360271777343755,36.93164760742188C45.28117177734375,36.984347607421874,45.19327177734375,37.037047607421876,45.11417177734375,37.08104760742188C45.02627177734375,37.12494760742187,44.93837177734375,37.16894760742187,44.850571777343745,37.20404760742187C44.762671777343755,37.23924760742187,44.66597177734375,37.27434760742187,44.57807177734375,37.300747607421876C44.48137177734375,37.32714760742188,44.39347177734375,37.35344760742187,44.29677177734375,37.37104760742187C44.200171777343755,37.38864760742187,44.10347177734375,37.406247607421875,44.00677177734375,37.415047607421876C43.910071777343745,37.42374760742187,43.81337177734375,37.432547607421874,43.71677177734375,37.432547607421874ZM19.98626177734375,49.29784760742187C19.88959177734375,49.29784760742187,19.79291177734375,49.28904760742188,19.69622177734375,49.28024760742188C19.59955177734375,49.27144760742188,19.50286177734375,49.253847607421875,19.40619177734375,49.23624760742187C19.30951177734375,49.218747607421875,19.21283177734375,49.19234760742187,19.12494177734375,49.16594760742188C19.02826177734375,49.13964760742188,18.94037177734375,49.104447607421875,18.85247177734375,49.069347607421875C18.76458177734375,49.03414760742187,18.67669177734375,48.99024760742188,18.58880177734375,48.946247607421874C18.50091177734375,48.90234760742187,18.42181177734375,48.849547607421876,18.34271177734375,48.796847607421874C18.26361177734375,48.74414760742187,18.18451177734375,48.682547607421874,18.10540177734375,48.62104760742187C17.95074177734375,48.50144760742187,17.81193177734375,48.36264760742188,17.69232177734375,48.20794760742187C17.63080177734375,48.128847607421875,17.56927177734375,48.05854760742187,17.51654177734375,47.970647607421874C17.46380177734375,47.89154760742188,17.41107177734375,47.80364760742187,17.36712177734375,47.724547607421876C17.32318177734375,47.63664760742188,17.27923177734375,47.54884760742188,17.24408177734375,47.46094760742187C17.20892177734375,47.373047607421874,17.17376177734375,47.276347607421876,17.14740177734375,47.18844760742188C17.12103177734375,47.09174760742187,17.09466177734375,47.003847607421875,17.07708177734375,46.90714760742188C17.05951177734375,46.810547607421874,17.04193177734375,46.713847607421876,17.03314177734375,46.61714760742188C17.02435177734375,46.52044760742187,17.01556177734375,46.42374760742187,17.01556177734375,46.32714760742188C17.01556177734375,46.23044760742187,17.02435177734375,46.133747607421874,17.03314177734375,46.037047607421876C17.04193177734375,45.94034760742188,17.05951177734375,45.843747607421875,17.07708177734375,45.74704760742188C17.09466177734375,45.65034760742188,17.12103177734375,45.55364760742187,17.14740177734375,45.465747607421875C17.17376177734375,45.37794760742187,17.20892177734375,45.281247607421875,17.24408177734375,45.19334760742188C17.27923177734375,45.10544760742187,17.32318177734375,45.017547607421875,17.36712177734375,44.92964760742188C17.41107177734375,44.84174760742187,17.46380177734375,44.762647607421876,17.51654177734375,44.68354760742187C17.56927177734375,44.604447607421875,17.63080177734375,44.52534760742188,17.69232177734375,44.446247607421874C17.81193177734375,44.291547607421876,17.95074177734375,44.15274760742187,18.10540177734375,44.033147607421874C18.18451177734375,43.97164760742187,18.25482177734375,43.91014760742188,18.34271177734375,43.85734760742187C18.42181177734375,43.80464760742188,18.50970177734375,43.751947607421876,18.58880177734375,43.70794760742187C18.67669177734375,43.66404760742188,18.76458177734375,43.620047607421874,18.85247177734375,43.584947607421874C18.94037177734375,43.54974760742188,19.03705177734375,43.51464760742188,19.12494177734375,43.488247607421876C19.22161177734375,43.46184760742187,19.30951177734375,43.435547607421874,19.40619177734375,43.41794760742187C19.50286177734375,43.40034760742188,19.59955177734375,43.38274760742188,19.69622177734375,43.373947607421876C19.79290177734375,43.36524760742188,19.88958177734375,43.35644760742188,19.98626177734375,43.35644760742188C20.08294177734375,43.35644760742188,20.17962177734375,43.36524760742188,20.27630177734375,43.373947607421876C20.37298177734375,43.38274760742188,20.46966177734375,43.40034760742188,20.56634177734375,43.41794760742187C20.66302177734375,43.435547607421874,20.75970177734375,43.46184760742187,20.84759177734375,43.488247607421876C20.94427177734375,43.51464760742188,21.03216177734375,43.54974760742188,21.12005177734375,43.584947607421874C21.20794177734375,43.620047607421874,21.29584177734375,43.66404760742188,21.38373177734375,43.70794760742187C21.47162177734375,43.751947607421876,21.55072177734375,43.80464760742188,21.62982177734375,43.85734760742187C21.70892177734375,43.91014760742188,21.78802177734375,43.97164760742187,21.86712177734375,44.033147607421874C22.02178177734375,44.15274760742187,22.16060177734375,44.291547607421876,22.28021177734375,44.446247607421874C22.34173177734375,44.52534760742188,22.40326177734375,44.595647607421874,22.455991777343748,44.68354760742187C22.508731777343748,44.762647607421876,22.56146177734375,44.85054760742187,22.60540177734375,44.92964760742188C22.64935177734375,45.017547607421875,22.693291777343752,45.10544760742187,22.72845177734375,45.19334760742188C22.763611777343748,45.281247607421875,22.79876177734375,45.37794760742187,22.82513177734375,45.465747607421875C22.85150177734375,45.56244760742187,22.87786177734375,45.65034760742188,22.89544177734375,45.74704760742188C22.91302177734375,45.843747607421875,22.93060177734375,45.94034760742188,22.93939177734375,46.037047607421876C22.94818177734375,46.133747607421874,22.95697177734375,46.23044760742187,22.95697177734375,46.32714760742188C22.95697177734375,46.42374760742187,22.94818177734375,46.52044760742187,22.93939177734375,46.61714760742188C22.93060177734375,46.713847607421876,22.91302177734375,46.810547607421874,22.89544177734375,46.90714760742188C22.87787177734375,47.003847607421875,22.85150177734375,47.10054760742187,22.82513177734375,47.18844760742188C22.79876177734375,47.28514760742188,22.763611777343748,47.373047607421874,22.72845177734375,47.46094760742187C22.693291777343752,47.54884760742188,22.64935177734375,47.63664760742188,22.60540177734375,47.724547607421876C22.56146177734375,47.81244760742187,22.508731777343748,47.89154760742188,22.455991777343748,47.970647607421874C22.40326177734375,48.04974760742188,22.34173177734375,48.128847607421875,22.28021177734375,48.20794760742187C22.16060177734375,48.36264760742188,22.02178177734375,48.50144760742187,21.86712177734375,48.62104760742187C21.78802177734375,48.682547607421874,21.71771177734375,48.74414760742187,21.62982177734375,48.796847607421874C21.55072177734375,48.849547607421876,21.46283177734375,48.90234760742187,21.38373177734375,48.946247607421874C21.29584177734375,48.99024760742188,21.20794177734375,49.03414760742187,21.12005177734375,49.069347607421875C21.03216177734375,49.104447607421875,20.93548177734375,49.13964760742188,20.84759177734375,49.16594760742188C20.75091177734375,49.19234760742187,20.66302177734375,49.218747607421875,20.56634177734375,49.23624760742187C20.46966177734375,49.253847607421875,20.37299177734375,49.27144760742188,20.27630177734375,49.28024760742188C20.17962177734375,49.28904760742188,20.08295177734375,49.29784760742187,19.98626177734375,49.29784760742187ZM19.98626177734375,13.702117607421876C20.08294177734375,13.702117607421876,20.17962177734375,13.710907607421875,20.27630177734375,13.719697607421875C20.37298177734375,13.728487607421876,20.46966177734375,13.746067607421875,20.56634177734375,13.763637607421876C20.66302177734375,13.781217607421874,20.75970177734375,13.807587607421874,20.84759177734375,13.833957607421874C20.94427177734375,13.860317607421875,21.03216177734375,13.895477607421874,21.12005177734375,13.930637607421875C21.20794177734375,13.965787607421875,21.29584177734375,14.009737607421876,21.38373177734375,14.053677607421875C21.47162177734375,14.097627607421876,21.55072177734375,14.150357607421874,21.62982177734375,14.203097607421874C21.70892177734375,14.255827607421875,21.78802177734375,14.317347607421874,21.86712177734375,14.378877607421876C22.02179177734375,14.498487607421875,22.16060177734375,14.637297607421875,22.28021177734375,14.791957607421875C22.34173177734375,14.871067607421875,22.40326177734375,14.941377607421874,22.455991777343748,15.029267607421875C22.508731777343748,15.108367607421876,22.56146177734375,15.196257607421874,22.60540177734375,15.275357607421874C22.64935177734375,15.363247607421876,22.693291777343752,15.451137607421874,22.72845177734375,15.539027607421875C22.763611777343748,15.626927607421875,22.79876177734375,15.723597607421876,22.82513177734375,15.811487607421874C22.85150177734375,15.908167607421875,22.87786177734375,15.996067607421875,22.89544177734375,16.092737607421874C22.91302177734375,16.189417607421873,22.93060177734375,16.286097607421876,22.93939177734375,16.382777607421875C22.94818177734375,16.479457607421875,22.95697177734375,16.576137607421874,22.95697177734375,16.672817607421877C22.95697177734375,16.769497607421876,22.94818177734375,16.866177607421875,22.93939177734375,16.962857607421874C22.93060177734375,17.059537607421873,22.91302177734375,17.156217607421876,22.89544177734375,17.252897607421875C22.87787177734375,17.349577607421875,22.85150177734375,17.446257607421874,22.82513177734375,17.534147607421875C22.79876177734375,17.630827607421875,22.763611777343748,17.718717607421876,22.72845177734375,17.806607607421874C22.693291777343752,17.894497607421876,22.64935177734375,17.982387607421874,22.60540177734375,18.070277607421875C22.56146177734375,18.158167607421873,22.508731777343748,18.237277607421873,22.455991777343748,18.316377607421874C22.40326177734375,18.395477607421874,22.34173177734375,18.474577607421875,22.28021177734375,18.553677607421875C22.16060177734375,18.708337607421875,22.02179177734375,18.847147607421874,21.86712177734375,18.966767607421875C21.78802177734375,19.028287607421873,21.71771177734375,19.089807607421875,21.62982177734375,19.142547607421875C21.54193177734375,19.195277607421875,21.46283177734375,19.248017607421875,21.38373177734375,19.291957607421875C21.29584177734375,19.335907607421873,21.20794177734375,19.379847607421873,21.12005177734375,19.415007607421877C21.03216177734375,19.450167607421875,20.93548177734375,19.485317607421877,20.84759177734375,19.511687607421877C20.75091177734375,19.538057607421877,20.66302177734375,19.564417607421873,20.56634177734375,19.581997607421876C20.46966177734375,19.599577607421875,20.37299177734375,19.617157607421873,20.27630177734375,19.625947607421875C20.17962177734375,19.634737607421876,20.08295177734375,19.643517607421877,19.98626177734375,19.643517607421877C19.88959177734375,19.643517607421877,19.79291177734375,19.634737607421876,19.69622177734375,19.625947607421875C19.59954177734375,19.617157607421873,19.50286177734375,19.599577607421875,19.40619177734375,19.581997607421876C19.30951177734375,19.564417607421873,19.21283177734375,19.538057607421877,19.12494177734375,19.511687607421877C19.02826177734375,19.485317607421877,18.94037177734375,19.450167607421875,18.85247177734375,19.415007607421877C18.76458177734375,19.379847607421873,18.67669177734375,19.335907607421873,18.58880177734375,19.291957607421875C18.50091177734375,19.248017607421875,18.42181177734375,19.195277607421875,18.34271177734375,19.142547607421875C18.26361177734375,19.089807607421875,18.18451177734375,19.028287607421873,18.10540177734375,18.966767607421875C17.95074177734375,18.847147607421874,17.81193177734375,18.708337607421875,17.69232177734375,18.553677607421875C17.63080177734375,18.474577607421875,17.56927177734375,18.404267607421875,17.51654177734375,18.316377607421874C17.46380177734375,18.237267607421874,17.41107177734375,18.149377607421876,17.36712177734375,18.070277607421875C17.32318177734375,17.982387607421874,17.27923177734375,17.894497607421876,17.24408177734375,17.806607607421874C17.20892177734375,17.718717607421876,17.17376177734375,17.622037607421873,17.14740177734375,17.534147607421875C17.12103177734375,17.437467607421876,17.09466177734375,17.349577607421875,17.07708177734375,17.252897607421875C17.05951177734375,17.156217607421876,17.04193177734375,17.059537607421873,17.03314177734375,16.962857607421874C17.02435177734375,16.866177607421875,17.01556177734375,16.769497607421876,17.01556177734375,16.672817607421877C17.01556177734375,16.576137607421874,17.02435177734375,16.479457607421875,17.03314177734375,16.382777607421875C17.04193177734375,16.286097607421876,17.05951177734375,16.189417607421873,17.07708177734375,16.092737607421874C17.09466177734375,15.996067607421875,17.12103177734375,15.899377607421876,17.14740177734375,15.811487607421874C17.17376177734375,15.714807607421875,17.20892177734375,15.626917607421875,17.24408177734375,15.539027607421875C17.27923177734375,15.451137607421874,17.32318177734375,15.363247607421876,17.36712177734375,15.275357607421874C17.41107177734375,15.187467607421876,17.46380177734375,15.108367607421876,17.51654177734375,15.029267607421875C17.56927177734375,14.950167607421875,17.63080177734375,14.871067607421875,17.69232177734375,14.791957607421875C17.81193177734375,14.637297607421875,17.95074177734375,14.498487607421875,18.10540177734375,14.378877607421876C18.18451177734375,14.317347607421874,18.25482177734375,14.255827607421875,18.34271177734375,14.203097607421874C18.42181177734375,14.150357607421874,18.50970177734375,14.097627607421876,18.58880177734375,14.053677607421875C18.67669177734375,14.009737607421876,18.76458177734375,13.965787607421875,18.85247177734375,13.930627607421876C18.94037177734375,13.895477607421874,19.03705177734375,13.860317607421875,19.12494177734375,13.833957607421874C19.22161177734375,13.807587607421874,19.30951177734375,13.781217607421874,19.40619177734375,13.763637607421876C19.50286177734375,13.746057607421875,19.59955177734375,13.728487607421876,19.69622177734375,13.719697607421875C19.79290177734375,13.710907607421875,19.88958177734375,13.702117607421876,19.98626177734375,13.702117607421876ZM43.71677177734375,28.529247607421876C43.461871777343745,28.529247607421876,43.198171777343745,28.546847607421874,42.94327177734375,28.582047607421874C42.68837177734375,28.617147607421874,42.43357177734375,28.669847607421875,42.187471777343745,28.731447607421874C41.94137177734375,28.801747607421873,41.69527177734375,28.880847607421874,41.45797177734375,28.977547607421876C41.22067177734375,29.074147607421875,40.98337177734375,29.188447607421875,40.76357177734375,29.320247607421877C40.54387177734375,29.452147607421875,40.32417177734375,29.592747607421874,40.121971777343745,29.750947607421875C39.91987177734375,29.909147607421875,39.72647177734375,30.076147607421873,39.54197177734375,30.260747607421877C39.35737177734375,30.445247607421877,39.19037177734375,30.638647607421873,39.03217177734375,30.840747607421875C38.873971777343755,31.042947607421876,38.73337177734375,31.262647607421876,38.60147177734375,31.482347607421875C34.69037177734375,31.368147607421875,30.70887177734375,30.304647607421874,27.82607177734375,28.582047607421874C24.83787177734375,26.789047607421875,23.22064177734375,24.503847607421875,22.992121777343748,21.779247607421873C23.08880177734375,21.726547607421875,23.17669177734375,21.665047607421876,23.26458177734375,21.612247607421875L23.528251777343748,21.427747607421875C23.616151777343752,21.366147607421873,23.69525177734375,21.295847607421877,23.78314177734375,21.225547607421873C23.862241777343748,21.155247607421877,23.95013177734375,21.084947607421874,24.02923177734375,21.014647607421875C24.10837177734375,20.944347607421875,24.187471777343752,20.865247607421875,24.25777177734375,20.786147607421874C24.336871777343752,20.707047607421877,24.40717177734375,20.627897607421875,24.47747177734375,20.548797607421875C24.547771777343748,20.469697607421875,24.61807177734375,20.381807607421877,24.67967177734375,20.302707607421873C24.749971777343752,20.214807607421875,24.811471777343748,20.126917607421873,24.87297177734375,20.039027607421875C24.934471777343752,19.951137607421877,24.99607177734375,19.863247607421876,25.048771777343752,19.766567607421877C25.10147177734375,19.678677607421875,25.163071777343752,19.581997607421876,25.20697177734375,19.485317607421877C25.259671777343748,19.388637607421877,25.30367177734375,19.291957607421875,25.35637177734375,19.195277607421875C25.409071777343748,19.098597607421873,25.44427177734375,19.001917607421873,25.48817177734375,18.896457607421873C25.53217177734375,18.799777607421873,25.56727177734375,18.694307607421877,25.60247177734375,18.597627607421874C25.637671777343748,18.492157607421873,25.672771777343748,18.395477607421874,25.69917177734375,18.290007607421874L25.77827177734375,17.973597607421876C25.80467177734375,17.868127607421876,25.822171777343748,17.762667607421875,25.83977177734375,17.657197607421875C25.85737177734375,17.551727607421874,25.874971777343752,17.446257607421874,25.88377177734375,17.340787607421873C25.89247177734375,17.235317607421877,25.90127177734375,17.129847607421876,25.910071777343752,17.015597607421874C25.91887177734375,16.901337607421876,25.91887177734375,16.804657607421873,25.91887177734375,16.690397607421875C25.91887177734375,16.584927607421875,25.91887177734375,16.470667607421873,25.910071777343752,16.365207607421876C25.90127177734375,16.259737607421876,25.89247177734375,16.154267607421875,25.88377177734375,16.040007607421874C25.874971777343752,15.934537607421875,25.85737177734375,15.829067607421875,25.83977177734375,15.723597607421876C25.822171777343748,15.618137607421875,25.80467177734375,15.512667607421875,25.77827177734375,15.407197607421875C25.75187177734375,15.301727607421874,25.73427177734375,15.196257607421874,25.69917177734375,15.090787607421875C25.672771777343748,14.985317607421875,25.637671777343748,14.879847607421876,25.60247177734375,14.783167607421875C25.56727177734375,14.677707607421874,25.53217177734375,14.581027607421875,25.48817177734375,14.475557607421875C25.44427177734375,14.370087607421874,25.409071777343748,14.273407607421875,25.36517177734375,14.176727607421874C25.32127177734375,14.080047607421875,25.26847177734375,13.983367607421876,25.224571777343748,13.886687607421875C25.17177177734375,13.790007607421876,25.11907177734375,13.693327607421875,25.06637177734375,13.605437607421875C25.01357177734375,13.508757607421876,24.95207177734375,13.420867607421876,24.89057177734375,13.332977607421874L24.70597177734375,13.069307607421875C24.64447177734375,12.981417607421875,24.57417177734375,12.902317607421875,24.50387177734375,12.814427607421875C24.43357177734375,12.735317607421875,24.36317177734375,12.647427607421875,24.29287177734375,12.577117607421876C24.222571777343752,12.498017607421875,24.14347177734375,12.418917607421875,24.06437177734375,12.348597607421874C23.98528177734375,12.278287607421875,23.90618177734375,12.199187607421875,23.82708177734375,12.128877607421876C23.74798177734375,12.058567607421875,23.66009177734375,11.988247607421876,23.57220177734375,11.926727607421874C23.48431177734375,11.865207607421874,23.39642177734375,11.794887607421876,23.308531777343752,11.742157607421875C23.22064177734375,11.680633607421875,23.13275177734375,11.627899607421876,23.03607177734375,11.566375607421875C22.93939177734375,11.504852607421874,22.85150177734375,11.460907607421875,22.75482177734375,11.408172607421875C22.65814177734375,11.355438607421876,22.56146177734375,11.311492607421876,22.464781777343752,11.267547607421875C22.36810177734375,11.223602607421874,22.27142177734375,11.179656607421874,22.16595177734375,11.135711607421875C22.06927177734375,11.091766607421874,21.96380177734375,11.056610607421876,21.85833177734375,11.021453607421876C21.75286177734375,10.986297607421875,21.65618177734375,10.959930607421875,21.55072177734375,10.924774607421876L21.23431177734375,10.845672607421875C21.12884177734375,10.819305607421875,21.02337177734375,10.801727307421874,20.91790177734375,10.784149307421876C20.81244177734375,10.766571207421874,20.70697177734375,10.748993107421875,20.60150177734375,10.740203907421876C20.49603177734375,10.731414807421874,20.39056177734375,10.722625807421876,20.27630177734375,10.713836727421874C20.17083177734375,10.705047607421875,20.06536177734375,10.705047607421875,19.95111177734375,10.705047607421875C19.84564177734375,10.705047607421875,19.73138177734375,10.705047607421875,19.62591177734375,10.713836727421874C19.52044177734375,10.722625807421876,19.41498177734375,10.731414807421874,19.30072177734375,10.740203907421876C19.19525177734375,10.748993107421875,19.08978177734375,10.766571207421874,18.98431177734375,10.784149307421876C18.87884177734375,10.801727307421874,18.77337177734375,10.819305607421875,18.66791177734375,10.845672607421875L18.35150177734375,10.924774607421876C18.24603177734375,10.951141607421874,18.14056177734375,10.986297607421875,18.04388177734375,11.021453607421876C17.93841177734375,11.056609607421874,17.84173177734375,11.091766607421874,17.74505177734375,11.135711607421875C17.64837177734375,11.179656607421874,17.54291177734375,11.214813607421876,17.44623177734375,11.267547607421875C17.34955177734375,11.320281607421874,17.25287177734375,11.364227607421874,17.15619177734375,11.416961607421875C17.05951177734375,11.469696607421875,16.97162177734375,11.522430607421875,16.87494177734375,11.575164607421875C16.78705177734375,11.627899607421876,16.69037177734375,11.689422607421875,16.60248177734375,11.750947607421875C16.51459177734375,11.812467607421874,16.42669177734375,11.873997607421876,16.33880177734375,11.944307607421875C16.25091177734375,12.005827607421875,16.17181177734375,12.076137607421876,16.08392177734375,12.146457607421874C15.99603177734375,12.216767607421875,15.92572177734375,12.287077607421875,15.84662177734375,12.366177607421875L15.61810177734375,12.594697607421875C15.53900177734375,12.673797607421875,15.50384177734375,12.779267607421875,15.43353177734375,12.858367607421876C15.36322177734375,12.937467607421874,15.30169177734375,13.025357607421874,15.23138177734375,13.113247607421876L15.04681177734375,13.376927607421875C14.98529077734375,13.464817607421875,14.93255677734375,13.561497607421876,14.87103277734375,13.649387607421875C14.81829877734375,13.746067607421875,14.76556377734375,13.833957607421874,14.71282977734375,13.930637607421875C14.66009577734375,14.027317607421875,14.61615077734375,14.123997607421876,14.57220477734375,14.220677607421875C14.52825977734375,14.317347607421874,14.48431477734375,14.414027607421875,14.44915777734375,14.519497607421876C14.41400177734375,14.616177607421875,14.37005677734375,14.721647607421875,14.34368877734375,14.827117607421876C14.30853277734375,14.932587607421876,14.28216577734375,15.029267607421875,14.25579877734375,15.134737607421876C14.22943177734375,15.240207607421876,14.20306377734375,15.345677607421875,14.18548577734375,15.451137607421874C14.15911877734375,15.556607607421874,14.14154077734375,15.662077607421875,14.12396267734375,15.767547607421875C14.10638447734375,15.873017607421875,14.09759567734375,15.978487607421876,14.08001737734375,16.083957607421876C14.07122827734375,16.189417607421873,14.06243917734375,16.294887607421874,14.05365037734375,16.409147607421875C14.04486121734375,16.514617607421876,14.04486121734375,16.628877607421874,14.04486121734375,16.734347607421874C14.04486121734375,16.839817607421875,14.05365037734375,16.954067607421877,14.05365037734375,17.059537607421873C14.06243947734375,17.165007607421874,14.07122857734375,17.270477607421874,14.08001737734375,17.384737607421876C14.08880617734375,17.498987607421874,14.10638447734375,17.595667607421873,14.12396267734375,17.701137607421874C14.14154077734375,17.806607607421874,14.16790777734375,17.912077607421875,14.18548577734375,18.017547607421875L14.26458777734375,18.333957607421876C14.29095477734375,18.439417607421873,14.32611077734375,18.536097607421876,14.36126777734375,18.641567607421877C14.39642377734375,18.747037607421873,14.43157977734375,18.843717607421873,14.47552477734375,18.940397607421875C14.51947077734375,19.037077607421875,14.56341577734375,19.142547607421875,14.60736077734375,19.239227607421874C14.65130677734375,19.335907607421873,14.70404077734375,19.432587607421873,14.75677577734375,19.529267607421875C14.80950977734375,19.625947607421875,14.86224377734375,19.713837607421873,14.92376777734375,19.810517607421875C14.97650177734375,19.898407607421873,15.03802177734375,19.995087607421873,15.09955177734375,20.082977607421874C15.16107177734375,20.170867607421876,15.22259177734375,20.258757607421877,15.29291177734375,20.346647607421875C15.36322177734375,20.434537607421873,15.42474177734375,20.513637607421877,15.49505177734375,20.592747607421877C15.56537177734375,20.671847607421874,15.63568177734375,20.750947607421875,15.71478177734375,20.830047607421875L15.94330177734375,21.058547607421875C16.02240177734375,21.128847607421875,16.10150177734375,21.199147607421875,16.18939177734375,21.269547607421877C16.26849177734375,21.339847607421873,16.35638177734375,21.401347607421876,16.44427177734375,21.471647607421875L16.70795177734375,21.656247607421875C16.79584177734375,21.717747607421877,16.89252177734375,21.770447607421875,16.98041177734375,21.823247607421877L16.98041177734375,41.220647607421874C16.88373177734375,41.27344760742187,16.79584177734375,41.334947607421874,16.70795177734375,41.387647607421876L16.44427177734375,41.57224760742187C16.35638177734375,41.633747607421874,16.26849177734375,41.70404760742187,16.18939177734375,41.77434760742187C16.11029177734375,41.84474760742188,16.02240177734375,41.915047607421876,15.94330177734375,41.98534760742187C15.86420177734375,42.055647607421875,15.78509177734375,42.13474760742187,15.71478177734375,42.213847607421876C15.63568177734375,42.29294760742188,15.56537177734375,42.37204760742188,15.49505177734375,42.45114760742187C15.42474177734375,42.53024760742187,15.35443177734375,42.618147607421875,15.28412177734375,42.69724760742187C15.21380177734375,42.78514760742188,15.15228177734375,42.873047607421874,15.09076177734375,42.96094760742187C15.02923577734375,43.04884760742188,14.96771277734375,43.13664760742188,14.91497877734375,43.23334760742188C14.86224377734375,43.330047607421875,14.80072077734375,43.41794760742187,14.74798577734375,43.51464760742188C14.69525177734375,43.61134760742188,14.64251677734375,43.70794760742187,14.59857177734375,43.80464760742188C14.55462677734375,43.901347607421876,14.51068077734375,43.998047607421874,14.46673577734375,44.10344760742188C14.42279077734375,44.200147607421876,14.38763377734375,44.305647607421875,14.35247777734375,44.40234760742187C14.31732177734375,44.50774760742188,14.28216577734375,44.604447607421875,14.25579877734375,44.709947607421874C14.22943077734375,44.81544760742187,14.19427477734375,44.92084760742188,14.17669677734375,45.026347607421876C14.15032977734375,45.131847607421875,14.13275147734375,45.23724760742188,14.11517327734375,45.34274760742188C14.09759497734375,45.44824760742188,14.08001707734375,45.55364760742187,14.07122797734375,45.65914760742187C14.06243887734375,45.76464760742188,14.04486089734375,45.870047607421874,14.04486089734375,45.984347607421874C14.04486089734375,46.098647607421874,14.03607177734375,46.20404760742188,14.03607177734375,46.30954760742188C14.03607177734375,46.415047607421876,14.03607177734375,46.52924760742187,14.04486089734375,46.63474760742187C14.05364997734375,46.74024760742188,14.05364997734375,46.854447607421875,14.07122797734375,46.959947607421874C14.08001707734375,47.06544760742187,14.09759497734375,47.17084760742188,14.11517327734375,47.28514760742188C14.13275147734375,47.39054760742187,14.15032977734375,47.49604760742187,14.17669677734375,47.60154760742188C14.20306377734375,47.70704760742188,14.22064177734375,47.81244760742187,14.25579877734375,47.91794760742187C14.28216577734375,48.02344760742187,14.31732177734375,48.128847607421875,14.34368877734375,48.22554760742187C14.37884477734375,48.33104760742187,14.41400077734375,48.42774760742188,14.44915777734375,48.533147607421874C14.48431377734375,48.62984760742187,14.52825977734375,48.73534760742187,14.57220477734375,48.83204760742188C14.61614977734375,48.92864760742187,14.66009477734375,49.02534760742188,14.71282977734375,49.12204760742188C14.76556377734375,49.218747607421875,14.81829777734375,49.31544760742187,14.87103277734375,49.403247607421875C14.92376677734375,49.49994760742187,14.98528977734375,49.58784760742188,15.04681177734375,49.675747607421876L15.23138177734375,49.939447607421876C15.29291177734375,50.02734760742187,15.36322177734375,50.10644760742188,15.43353177734375,50.194347607421875C15.50384177734375,50.27344760742187,15.57415177734375,50.36124760742187,15.64447177734375,50.44044760742187C15.71478177734375,50.51954760742188,15.79388177734375,50.598647607421874,15.87298177734375,50.66894760742188C15.95209177734375,50.73924760742187,16.03119177734375,50.81834760742188,16.11029177734375,50.88864760742187C16.18939177734375,50.95894760742188,16.27728177734375,51.02924760742187,16.36517177734375,51.090747607421875C16.45306177734375,51.15234760742187,16.54095177734375,51.22264760742188,16.62884177734375,51.28414760742187C16.71673177734375,51.345647607421874,16.80462177734375,51.40724760742187,16.90130177734375,51.459947607421874C16.98919177734375,51.512647607421876,17.08587177734375,51.56544760742187,17.18255177734375,51.618147607421875C17.27923177734375,51.67084760742188,17.37591177734375,51.71484760742187,17.47259177734375,51.758747607421874C17.56927177734375,51.80274760742188,17.66595177734375,51.84664760742187,17.77142177734375,51.890647607421876C17.86810177734375,51.93454760742188,17.97357177734375,51.96974760742187,18.07904177734375,52.00484760742187C18.18451177734375,52.040047607421876,18.28119177734375,52.075147607421876,18.38666177734375,52.10154760742188L18.70306177734375,52.180647607421875C18.80853177734375,52.20704760742188,18.91400177734375,52.224547607421876,19.01947177734375,52.24214760742188C19.12494177734375,52.25974760742187,19.23040177734375,52.27734760742187,19.33587177734375,52.286147607421874C19.44134177734375,52.29484760742187,19.54681177734375,52.30364760742187,19.66107177734375,52.31244760742187C19.76654177734375,52.321247607421874,19.88080177734375,52.321247607421874,19.98626177734375,52.321247607421874C20.09173177734375,52.321247607421874,20.20599177734375,52.321247607421874,20.31146177734375,52.31244760742187C20.41693177734375,52.30364760742187,20.52240177734375,52.29484760742187,20.63665177734375,52.286147607421874C20.74212177734375,52.27734760742187,20.84759177734375,52.25974760742187,20.95306177734375,52.24214760742188C21.05853177734375,52.224547607421876,21.16400177734375,52.20704760742188,21.26947177734375,52.180647607421875L21.58587177734375,52.10154760742188C21.69134177734375,52.075147607421876,21.79681177734375,52.040047607421876,21.89349177734375,52.00484760742187C21.99017177734375,51.96974760742187,22.09564177734375,51.93454760742188,22.201111777343748,51.890647607421876C22.29778177734375,51.84664760742187,22.403251777343748,51.811447607421876,22.49993177734375,51.758747607421874C22.59661177734375,51.71484760742187,22.693291777343752,51.662047607421876,22.78997177734375,51.618147607421875C22.88665177734375,51.57414760742188,22.974541777343752,51.512647607421876,23.07122177734375,51.459947607421874C23.15911177734375,51.40724760742187,23.255791777343752,51.345647607421874,23.34368177734375,51.28414760742187C23.43157177734375,51.22264760742188,23.51946177734375,51.161147607421874,23.607361777343748,51.090747607421875C23.69525177734375,51.02924760742187,23.77435177734375,50.95894760742188,23.862241777343748,50.88864760742187C23.94134177734375,50.81834760742188,24.02044177734375,50.748047607421874,24.099571777343748,50.66894760742188C24.17867177734375,50.598647607421874,24.248971777343748,50.51954760742188,24.32807177734375,50.44044760742187C24.398371777343748,50.36134760742188,24.47747177734375,50.28214760742188,24.53897177734375,50.194347607421875C24.60927177734375,50.11524760742188,24.67957177734375,50.02734760742187,24.74117177734375,49.939447607421876L24.92567177734375,49.675747607421876C24.98727177734375,49.58784760742188,25.03997177734375,49.49114760742187,25.10147177734375,49.403247607421875C25.15427177734375,49.30664760742187,25.20697177734375,49.218747607421875,25.259671777343748,49.12204760742188C25.312471777343752,49.02534760742188,25.35637177734375,48.92864760742187,25.40037177734375,48.83204760742188C25.44427177734375,48.73534760742187,25.48817177734375,48.63864760742187,25.523371777343748,48.533147607421874C25.55857177734375,48.436447607421876,25.60247177734375,48.33104760742187,25.62887177734375,48.22554760742187C25.65517177734375,48.120047607421874,25.69037177734375,48.02344760742187,25.71677177734375,47.91794760742187L25.79587177734375,47.60154760742188C25.822171777343748,47.49604760742187,25.83977177734375,47.390647607421876,25.85737177734375,47.28514760742188C25.874971777343752,47.17964760742188,25.88377177734375,47.07414760742188,25.90127177734375,46.959947607421874C25.910071777343752,46.854447607421875,25.91887177734375,46.748947607421876,25.92767177734375,46.63474760742187C25.936471777343748,46.52924760742187,25.936471777343748,46.415047607421876,25.936471777343748,46.30954760742188C25.936471777343748,46.20404760742188,25.92767177734375,46.08984760742187,25.92767177734375,45.984347607421874C25.91887177734375,45.878847607421875,25.910071777343752,45.77344760742187,25.90127177734375,45.65914760742187C25.89247177734375,45.55364760742187,25.874971777343752,45.44824760742188,25.85737177734375,45.34274760742188C25.83977177734375,45.23724760742188,25.81337177734375,45.131847607421875,25.79587177734375,45.026347607421876L25.71677177734375,44.709947607421874C25.69037177734375,44.604447607421875,25.65517177734375,44.50774760742188,25.62007177734375,44.40234760742187C25.58487177734375,44.296847607421874,25.54977177734375,44.200147607421876,25.50577177734375,44.10344760742188C25.461871777343752,44.006847607421875,25.41787177734375,43.901347607421876,25.373971777343748,43.80464760742188C25.32997177734375,43.70794760742187,25.27727177734375,43.61134760742188,25.224571777343748,43.51464760742188C25.17177177734375,43.41794760742187,25.11907177734375,43.330047607421875,25.05757177734375,43.23334760742188C25.00477177734375,43.14544760742187,24.94327177734375,43.04884760742188,24.88177177734375,42.96094760742187C24.82027177734375,42.873047607421874,24.75877177734375,42.78514760742188,24.68837177734375,42.69724760742187C24.61807177734375,42.609347607421874,24.55657177734375,42.53024760742187,24.47747177734375,42.45114760742187C24.40717177734375,42.37204760742188,24.336871777343752,42.29294760742188,24.25777177734375,42.213847607421876L24.02923177734375,41.98534760742187C23.95013177734375,41.915047607421876,23.871031777343752,41.84474760742188,23.78314177734375,41.77434760742187C23.70403177734375,41.70404760742187,23.61614177734375,41.642547607421875,23.528251777343748,41.57224760742187L23.26458177734375,41.387647607421876C23.17669177734375,41.32614760742187,23.08001177734375,41.27344760742187,22.992121777343748,41.220647607421874L22.992121777343748,32.46674760742188C27.14057177734375,35.62204760742188,32.93257177734375,37.31834760742187,38.61907177734375,37.450147607421876C38.70697177734375,37.599547607421876,38.79487177734375,37.748947607421876,38.90037177734375,37.88964760742188C38.996971777343745,38.03024760742187,39.10247177734375,38.17084760742188,39.21677177734375,38.30274760742188C39.33097177734375,38.43454760742188,39.44527177734375,38.566347607421875,39.56827177734375,38.680647607421875C39.69137177734375,38.80364760742188,39.81437177734375,38.91794760742188,39.94627177734375,39.03214760742188C40.07807177734375,39.14644760742188,40.21867177734375,39.251947607421876,40.35927177734375,39.348647607421874C40.499971777343745,39.44524760742188,40.649371777343745,39.541947607421875,40.798771777343745,39.62984760742188C40.948171777343745,39.71774760742187,41.097571777343745,39.796847607421874,41.25577177734375,39.86714760742187C41.41397177734375,39.93744760742187,41.572171777343755,40.00774760742188,41.73037177734375,40.069347607421875C41.88857177734375,40.13084760742187,42.05557177734375,40.18354760742187,42.222571777343745,40.227547607421876C42.38957177734375,40.27144760742188,42.55657177734375,40.30664760742188,42.73237177734375,40.34174760742188C42.899371777343745,40.368147607421875,43.075171777343755,40.39454760742187,43.24217177734375,40.412047607421876C43.58697177734375,40.447147607421876,43.93437177734375,40.447147607421876,44.27927177734375,40.412047607421876C44.45497177734375,40.39454760742187,44.621971777343745,40.376947607421876,44.78897177734375,40.34174760742188C44.95597177734375,40.30664760742188,45.13177177734375,40.27144760742188,45.298771777343745,40.227547607421876C45.46577177734375,40.18354760742187,45.63277177734375,40.13084760742187,45.79097177734375,40.069347607421875C45.94917177734375,40.00774760742188,46.11617177734375,39.946247607421874,46.26557177734375,39.87594760742188C46.42377177734375,39.805647607421875,46.57317177734375,39.72654760742188,46.72257177734375,39.63864760742187C46.87197177734375,39.550747607421876,47.02137177734375,39.46284760742188,47.16207177734375,39.35734760742187C47.30267177734375,39.26074760742188,47.44327177734375,39.15524760742187,47.57517177734375,39.04094760742187C47.70697177734375,38.92674760742187,47.83877177734375,38.81244760742187,47.95307177734375,38.689447607421876C48.07607177734375,38.566347607421875,48.19037177734375,38.44334760742187,48.30467177734375,38.311447607421876C48.41887177734375,38.17964760742187,48.52437177734375,38.03904760742188,48.62107177734375,37.89844760742187C48.71767177734375,37.75774760742188,48.81437177734375,37.60834760742188,48.90227177734375,37.45894760742188C48.99017177734375,37.30954760742188,49.06927177734375,37.16014760742188,49.13957177734375,37.001947607421876C49.20987177734375,36.843747607421875,49.28017177734375,36.685547607421874,49.34177177734375,36.52734760742187C49.40327177734375,36.36914760742188,49.45597177734375,36.20214760742188,49.49997177734375,36.03514760742188C49.54387177734375,35.868147607421875,49.57907177734375,35.70114760742187,49.61417177734375,35.52534760742188C49.64057177734375,35.35834760742188,49.66697177734375,35.182547607421874,49.68447177734375,35.01554760742188C49.71957177734375,34.67074760742187,49.71957177734375,34.32334760742188,49.68447177734375,33.97844760742187C49.66697177734375,33.80274760742188,49.64937177734375,33.63574760742188,49.61417177734375,33.468747607421875C49.58787177734375,33.30174760742187,49.54387177734375,33.12594760742188,49.49997177734375,32.95894760742188C49.45597177734375,32.791947607421875,49.40327177734375,32.62494760742187,49.34177177734375,32.46674760742188C49.28017177734375,32.30854760742187,49.21867177734375,32.14154760742187,49.13957177734375,31.992147607421874C49.06927177734375,31.833947607421877,48.99017177734375,31.684547607421877,48.90227177734375,31.535147607421877C48.81437177734375,31.385747607421877,48.72647177734375,31.236247607421873,48.62107177734375,31.095647607421874C48.52437177734375,30.955047607421875,48.41887177734375,30.814447607421876,48.30467177734375,30.682547607421874C48.19037177734375,30.550747607421876,48.07607177734375,30.418947607421874,47.95307177734375,30.304647607421874C47.82997177734375,30.181647607421876,47.70697177734375,30.067347607421876,47.57517177734375,29.953047607421876C47.44327177734375,29.838847607421876,47.30267177734375,29.733347607421877,47.16207177734375,29.636647607421875C47.02147177734375,29.540047607421876,46.87197177734375,29.443347607421874,46.72257177734375,29.355447607421876C46.57317177734375,29.267547607421875,46.42377177734375,29.188447607421875,46.26557177734375,29.118147607421875C46.10737177734375,29.047847607421875,45.94917177734375,28.977547607421876,45.79097177734375,28.915947607421874C45.63277177734375,28.854447607421875,45.46577177734375,28.801747607421873,45.298771777343745,28.757747607421877C45.13177177734375,28.713847607421876,44.96477177734375,28.678647607421876,44.78897177734375,28.643547607421876C44.621971777343745,28.617147607421874,44.44627177734375,28.590747607421875,44.27927177734375,28.573247607421877C44.059471777343745,28.538047607421873,43.89247177734375,28.529247607421876,43.71677177734375,28.529247607421876Z" fill="#000000" fill-opacity="1"/></g></g></g></svg>