<svg xmlns="http://www.w3.org/2000/svg" xmlns:xlink="http://www.w3.org/1999/xlink" fill="none" version="1.1" width="64" height="64" viewBox="0 0 64 64"><defs><clipPath id="master_svg0_12_120"><rect x="0" y="0" width="64" height="64" rx="0"/></clipPath></defs><g style="mix-blend-mode:passthrough" clip-path="url(#master_svg0_12_120)"><g><path d="M14.27273,30L9.54545,30L9.54545,25L6,25L6,40L9.54545,40L9.54545,33.75L14.27273,33.75L14.27273,40L17.818199999999997,40L17.818199999999997,25L14.27273,25L14.27273,30ZM20.181800000000003,28.75L23.7273,28.75L23.7273,40L27.2727,40L27.2727,28.75L30.8182,28.75L30.8182,25L20.181800000000003,25L20.181800000000003,28.75ZM33.181799999999996,28.75L36.7273,28.75L36.7273,40L40.2727,40L40.2727,28.75L43.8182,28.75L43.8182,25L33.181799999999996,25L33.181799999999996,28.75ZM54.4545,25L46.1818,25L46.1818,40L49.7273,40L49.7273,35L54.4545,35C56.4636,35,58,33.375,58,31.25L58,28.75C58,26.625,56.4636,25,54.4545,25ZM54.4545,31.25L49.7273,31.25L49.7273,28.75L54.4545,28.75L54.4545,31.25Z" fill="#000000" fill-opacity="1"/></g></g></svg>