<svg xmlns="http://www.w3.org/2000/svg" xmlns:xlink="http://www.w3.org/1999/xlink" fill="none" version="1.1" width="64" height="64" viewBox="0 0 64 64"><defs><clipPath id="master_svg0_1_786"><rect x="0" y="0" width="64" height="64" rx="0"/></clipPath></defs><g style="mix-blend-mode:passthrough" clip-path="url(#master_svg0_1_786)"><g><path d="M18.10791,13L20.46314,13C20.73056,13,20.95107,13.225295,20.95107,13.498525L20.95107,15.34403C20.95107,15.61726,20.73056,15.84255,20.46314,15.84255L18.31434,15.84255C18.04692,15.84255,17.68566,16.06305,17.68566,16.341079999999998L17.63874,28.1619C17.57775,29.8492,16.46113,32.476,14.88941,32.543099999999995C15.977879999999999,32.4952,17.68566,34.4366,17.68566,36.8285L17.63874,48.448C17.63874,48.726,17.85925,49.3875,18.13606,49.3875L20.44906,49.3875C20.72587,49.3875,20.955759999999998,49.7135,20.955759999999998,50.0011L20.955759999999998,51.4823C20.955759999999998,51.7651,20.73056,52,20.44906,52L18.1126,52C16.592489999999998,51.4152,15.26944,50.049,15.26944,47.6667L15.26944,38.9904C15.26944,36.5984,13.99799,34.6571,12.42627,34.6571L11.572386,34.6571C11.253351,34.6571,11,34.3934,11,34.0723L11,30.9133C11,30.5874,11.258043,30.3285,11.572386,30.3285L12.42158,30.3285C13.9933,30.3285,15.26474,28.3872,15.26474,25.9952L15.26474,17.32854C15.26474,14.93658,16.53619,13.000000344203,18.10791,13ZM45.8921,13C47.4638,13,48.7353,14.93658,48.7353,17.32854L48.7353,25.9952C48.7353,28.3872,50.0067,30.3285,51.5784,30.3285L52.4276,30.3285C52.742,30.3285,53,30.5874,53,30.9133L53,34.0723C53,34.3934,52.7467,34.6571,52.4276,34.6571L51.5737,34.6571C50.002,34.6571,48.7306,36.5985,48.7306,38.9904L48.7306,47.6667C48.7306,50.049,47.4075,51.4152,45.8874,52L43.5509,52C43.2694,52,43.0442,51.7651,43.0442,51.4823L43.0442,50.0011C43.0442,49.7135,43.2741,49.3875,43.5509,49.3875L45.8639,49.3875C46.1407,49.3875,46.3613,48.726,46.3613,48.448L46.3143,36.8285C46.3143,34.4366,48.0221,32.4952,49.1106,32.543099999999995C47.5389,32.476,46.4223,29.8492,46.3613,28.1619L46.3143,16.341079999999998C46.3143,16.06305,45.9531,15.84255,45.6857,15.84255L43.5369,15.84255C43.2694,15.84255,43.0489,15.61726,43.0489,15.34403L43.0489,13.498527C43.0489,13.225296,43.2694,13.00000137681,43.5369,13.00000137681L45.8921,13ZM31.8076,39.8772C32.5958,39.8772,33.2339,40.5291,33.2339,41.3344C33.2339,42.139700000000005,32.5958,42.7917,31.8076,42.7917C31.0194,42.7917,30.3814,42.139700000000005,30.3814,41.3344C30.3814,40.5291,31.0194,39.8772,31.8076,39.8772ZM26.1025,39.8772C26.890700000000002,39.8772,27.5288,40.5291,27.5288,41.3344C27.5288,42.139700000000005,26.890700000000002,42.7917,26.1025,42.7917C25.3143,42.7917,24.676299999999998,42.139700000000005,24.676299999999998,41.3344C24.676299999999998,40.5291,25.3143,39.8772,26.1025,39.8772ZM37.512699999999995,39.8772C38.3009,39.8772,38.939,40.5291,38.939,41.3344C38.939,42.139700000000005,38.3009,42.7917,37.512699999999995,42.7917C36.7245,42.7917,36.0865,42.139700000000005,36.0865,41.3344C36.0865,40.5291,36.7245,39.8772,37.512699999999995,39.8772Z" fill="#000000" fill-opacity="1"/></g></g></svg>