<svg xmlns="http://www.w3.org/2000/svg" xmlns:xlink="http://www.w3.org/1999/xlink" fill="none" version="1.1" width="64" height="64" viewBox="0 0 64 64"><defs><clipPath id="master_svg0_1_0391"><rect x="0" y="0" width="64" height="64" rx="0"/></clipPath><clipPath id="master_svg1_1_30"><rect x="15" y="15" width="34" height="34" rx="0"/></clipPath></defs><g style="mix-blend-mode:passthrough" clip-path="url(#master_svg0_1_0391)"><g clip-path="url(#master_svg1_1_30)"><g><path d="M47.5833,17.83333C48.3657,17.83333,49,18.4676,49,19.25L49,44.75C49,47.0972,47.0972,49,44.75,49L19.25,49C16.90279,49,15,47.0972,15,44.75L15,19.25C15,18.4676,15.634263,17.83333,16.41667,17.83333C17.19907,17.83333,17.83333,18.4676,17.83333,19.25L17.83333,44.75C17.83333,45.532399999999996,18.4676,46.1667,19.25,46.1667L44.75,46.1667C45.532399999999996,46.1667,46.1667,45.532399999999996,46.1667,44.75L46.1667,19.25C46.1667,18.4676,46.8009,17.83333,47.5833,17.83333ZM36.25,38.375C37.032399999999996,38.375,37.6667,39.009299999999996,37.6667,39.7917C37.6667,40.5741,37.032399999999996,41.2083,36.25,41.2083L27.75,41.2083C26.967599999999997,41.2083,26.3333,40.5741,26.3333,39.7917C26.3333,39.009299999999996,26.967599999999997,38.375,27.75,38.375L36.25,38.375ZM36.25,31.2917C37.032399999999996,31.2917,37.6667,31.9259,37.6667,32.7083C37.6667,33.490700000000004,37.032399999999996,34.125,36.25,34.125L27.75,34.125C26.967599999999997,34.125,26.3333,33.490700000000004,26.3333,32.7083C26.3333,31.9259,26.967599999999997,31.2917,27.75,31.2917L36.25,31.2917ZM36.25,24.20833C37.032399999999996,24.20833,37.6667,24.842599999999997,37.6667,25.625C37.6667,26.407400000000003,37.032399999999996,27.0417,36.25,27.0417L27.75,27.0417C26.967599999999997,27.0417,26.3333,26.407400000000003,26.3333,25.625C26.3333,24.842599999999997,26.967599999999997,24.20833,27.75,24.20833L36.25,24.20833ZM40.5,14.999999046326C41.282399999999996,14.999999013407,41.9167,15.634262,41.9167,16.41667C41.9167,17.19907,41.282399999999996,17.83333,40.5,17.83333L23.5,17.83333C22.7176,17.83333,22.08333,17.19907,22.08333,16.41667C22.08333,15.634262,22.7176,14.999999013407,23.5,14.999999046326L40.5,14.999999046326Z" fill="#000000" fill-opacity="1"/></g></g></g></svg>