<svg xmlns="http://www.w3.org/2000/svg" xmlns:xlink="http://www.w3.org/1999/xlink" fill="none" version="1.1" width="64" height="64" viewBox="0 0 64 64"><defs><clipPath id="master_svg0_12_104"><rect x="0" y="0" width="64" height="64" rx="0"/></clipPath></defs><g style="mix-blend-mode:passthrough" clip-path="url(#master_svg0_12_104)"><g><path d="M36.6819,14.9041C34.8732,12.71309,33.3157,10.487844,32.9975,10.025676C32.964,9.99144134,32.9137,9.99144134,32.8803,10.025676C32.562,10.487844,31.00454,12.71309,29.19579,14.9041Q13.67088,35.1196,31.64095,48.7621L31.79167,48.8648Q31.92564,50.9702,32.2606,54L32.9305,54L33.6004,54Q33.9354,50.9873,34.0693,48.8648L34.2201,48.745C34.2368,48.7621,52.206900000000005,35.1196,36.6819,14.9041ZM32.9305,48.454Q32.126599999999996,47.7522,31.9089,47.3928L31.9089,47.3584L32.8803,25.3457C32.8803,25.2772,32.9808,25.2772,32.9808,25.3457L33.9521,47.3584L33.9521,47.3928Q33.7344,47.7522,32.9305,48.454Z" fill="#001E2B" fill-opacity="1"/></g></g></svg>