<svg xmlns="http://www.w3.org/2000/svg" xmlns:xlink="http://www.w3.org/1999/xlink" fill="none" version="1.1" width="64" height="64" viewBox="0 0 64 64"><defs><clipPath id="master_svg0_1_561"><rect x="0" y="0" width="64" height="64" rx="0"/></clipPath><clipPath id="master_svg1_1_02"><rect x="7" y="9" width="50" height="49" rx="0"/></clipPath></defs><g style="mix-blend-mode:passthrough" clip-path="url(#master_svg0_1_561)"><g clip-path="url(#master_svg1_1_02)"><g><path d="M50.00287421875,44.293140258789066C47.67917421875,44.23604025878906,45.87807421875,44.46414025878906,44.36767421875,45.09004025878906C43.93187421875,45.26104025878906,43.23467421875,45.26104025878906,43.17657421875,45.80194025878906C43.40907421875,46.02974025878906,43.43817421875,46.39964025878906,43.64157421875,46.712840258789065C43.98997421875,47.28214025878906,44.59997421875,48.050840258789066,45.15207421875,48.449340258789064C45.76207421875,48.90454025878906,46.37217421875,49.36014025878906,47.01087421875,49.758640258789065C48.14397421875,50.44204025878906,49.42217421875,50.84034025878906,50.52597421875,51.52374025878906C51.16497421875,51.92204025878906,51.80397421875,52.43464025878906,52.44287421875,52.86174025878906C52.76247421875,53.089340258789065,52.96567421875,53.459440258789066,53.37247421875,53.601740258789064L53.37247421875,53.516340258789064C53.16897421875,53.26004025878906,53.11087421875,52.88994025878906,52.90757421875,52.60534025878906C52.61727421875,52.320540258789066,52.32667421875,52.06424025878906,52.03637421875,51.779840258789065C51.19397421875,50.669640258789066,50.14817421875,49.70184025878906,49.01517421875,48.90454025878906C48.08567421875,48.278340258789065,46.05237421875,47.424340258789066,45.67487421875,46.37114025878906Q45.64557421875,46.34264025878906,45.61677421875,46.31414025878906C46.25587421875,46.257340258789064,47.01087421875,46.029640258789065,47.62117421875,45.85874025878906C48.60857421875,45.60254025878906,49.50937421875,45.659540258789065,50.52597421875,45.403140258789065C50.99047421875,45.28934025878906,51.45537421875,45.147140258789065,51.92007421875,45.00454025878906L51.92007421875,44.74844025878906C51.39727421875,44.236140258789064,51.01977421875,43.55304025878907,50.46767421875,43.06904025878906C48.98657421875,41.81634025878906,47.35967421875,40.59224025878906,45.67497421875,39.56774025878906C44.77437421875,38.998140258789064,43.61227421875,38.62804025878906,42.65397421875,38.14434025878906C42.30547421875,37.973340258789065,41.72417421875,37.88804025878906,41.52127421875,37.60324025878906C40.998174218749995,36.97704025878906,40.707974218749996,36.15174025878906,40.33017421875,35.41134025878907C39.48797421875,33.84554025878906,38.67427421875,32.10924025878906,37.94817421875,30.45814025878906C37.42537421875,29.347840258789063,37.10597421875,28.237640258789064,36.46707421875,27.212840258789065C33.47487421875,22.373470258789062,30.22177421875,19.441610258789062,25.22547421875,16.56616025878906C24.150374218750002,15.968400258789062,22.87247421875,15.712150258789062,21.507174218750002,15.399160258789063C20.78117421875,15.370690258789063,20.05500421875,15.313740258789062,19.328784218750002,15.285270258789062C18.86394421875,15.085970258789063,18.39924421875,14.545010258789063,17.99250421875,14.288950258789063C16.33684421875,13.264116258789063,12.06696421875,11.043560258789062,10.84684821875,13.975720258789062C10.06247321875,15.826140258789064,12.008664218749999,17.647750258789063,12.676874218750001,18.587410258789063C13.17072421875,19.24212025878906,13.80964421875,19.982140258789062,14.15832421875,20.722310258789065C14.36154421875,21.205990258789065,14.41970421875,21.718630258789062,14.62316421875,22.231020258789062C15.08767421875,23.483440258789063,15.52341421875,24.878340258789063,16.13361421875,26.045640258789064C16.45300421875,26.643340258789063,16.80168421875,27.26964025878906,17.208374218750002,27.81034025878906C17.440644218750002,28.123640258789063,17.84724421875,28.265840258789062,17.934444218750002,28.77824025878906C17.52775421875,29.347540258789063,17.498654218749998,30.201540258789063,17.26623421875,30.913340258789063C16.22072421875,34.12994025878906,16.62751421875,38.11534025878906,18.10866421875,40.47814025878906C18.57346421875,41.18964025878906,19.67746421875,42.75564025878906,21.15867421875,42.15754025878906C22.465874218750002,41.64524025878906,22.17537421875,40.02264025878907,22.552974218750002,38.59924025878907C22.640174218749998,38.25764025878907,22.58207421875,38.02994025878906,22.75627421875,37.80234025878906L22.75627421875,37.85924025878906C23.16317421875,38.656140258789065,23.56957421875,39.42484025878906,23.94727421875,40.222040258789065C24.84787421875,41.616740258789065,26.41637421875,43.068540258789064,27.72337421875,44.03664025878906C28.42077421875,44.54874025878906,28.97257421875,45.431340258789064,29.84397421875,45.744540258789065L29.84397421875,45.658940258789066L29.78587421875,45.658940258789066C29.61147421875,45.40274025878906,29.35017421875,45.28894025878906,29.11787421875,45.089540258789064C28.59487421875,44.57724025878906,28.01387421875,43.95094025878906,27.60717421875,43.381740258789065C26.38727421875,41.78764025878906,25.312474218749998,40.02264025878907,24.35387421875,38.20074025878906C23.88907421875,37.31814025878906,23.48247421875,36.35034025878906,23.10487421875,35.46804025878906C22.93047421875,35.12644025878906,22.93047421875,34.61404025878906,22.639874218750002,34.44324025878906C22.204174218749998,35.06944025878906,21.565474218749998,35.61024025878906,21.24587421875,36.37894025878906C20.69397421875,37.60294025878906,20.63586421875,39.11154025878906,20.432394218749998,40.67724025878906C20.31599421875,40.70594025878906,20.374294218750002,40.67724025878906,20.31599421875,40.73414025878906C19.38664421875,40.50654025878906,19.06701421875,39.56714025878907,18.718434218749998,38.76994025878906C17.84714421875,36.74884025878906,17.70173421875,33.50344025878906,18.45705421875,31.169440258789063C18.66047421875,30.571740258789063,19.532054218749998,28.692740258789062,19.183424218749998,28.123540258789063C19.00900421875,27.582740258789062,18.42805421875,27.269540258789064,18.10866421875,26.84244025878906C17.73098421875,26.301640258789064,17.32429421875,25.618440258789065,17.06291421875,25.02054025878906C16.36555421875,23.426640258789064,16.01696421875,21.661640258789063,15.261894218750001,20.06737025878906C14.91330421875,19.327340258789064,14.30329421875,18.558610258789063,13.80949421875,17.875520258789063C13.25769421875,17.107030258789063,12.64768421875,16.56597025878906,12.21193421875,15.654970258789064C12.06677421875,15.341980258789063,11.86335421875,14.829580258789063,12.09577421875,14.487970258789062C12.15383421875,14.260340258789062,12.26999421875,14.174970258789063,12.502514218750001,14.117840258789062C12.879954218750001,13.804600258789062,13.95485421875,14.203250258789062,14.33234421875,14.373990258789062C15.40710421875,14.801060258789063,16.30759421875,15.199570258789063,17.20813421875,15.797330258789064C17.614624218750002,16.082100258789062,18.05036421875,16.622910258789062,18.57321421875,16.765180258789062L19.18337421875,16.765180258789062C20.11291421875,16.96453025878906,21.158574218749997,16.822310258789063,22.029874218750003,17.078410258789063C23.56937421875,17.562380258789062,24.96377421875,18.273980258789063,26.21297421875,19.042670258789062C30.01807421875,21.405440258789064,33.15517421875,24.76454025878906,35.27577421875,28.77834025878906C35.62417421875,29.433040258789063,35.76927421875,30.031040258789062,36.08917421875,30.71414025878906C36.69887421875,32.109040258789065,37.45417421875,33.53234025878906,38.06417421875,34.89854025878906C38.67407421875,36.236640258789066,39.25497421875,37.603040258789065,40.126474218750005,38.71344025878906C40.562274218750005,39.31094025878906,42.304974218750004,39.62414025878906,43.08937421875,39.93744025878907C43.67027421875,40.193540258789064,44.57077421875,40.42134025878906,45.09367421875,40.73434025878906C46.08127421875,41.332040258789064,47.06887421875,42.01544025878906,47.99847421875,42.67004025878906C48.46327421875,43.01164025878906,49.91577421875,43.72354025878906,50.00287421875,44.293140258789066Z" fill="#272636" fill-opacity="1"/></g></g></g></svg>