<svg xmlns="http://www.w3.org/2000/svg" xmlns:xlink="http://www.w3.org/1999/xlink" fill="none" version="1.1" width="64" height="64" viewBox="0 0 64 64"><defs><clipPath id="master_svg0_8_27"><rect x="0" y="0" width="64" height="64" rx="0"/></clipPath><clipPath id="master_svg1_8_33"><rect x="8" y="8" width="49" height="49" rx="0"/></clipPath></defs><g style="mix-blend-mode:passthrough" clip-path="url(#master_svg0_8_27)"><g clip-path="url(#master_svg1_8_33)"><g><path d="M45.359973828125,24.36964736328125C44.592973828125,17.82206736328125,39.044973828124995,12.88604736328125,32.452673828125,12.88604736328125C25.860273828125,12.88604701967825,20.312273828125,17.82206736328125,19.545303828125,24.36964736328125C15.475143828124999,24.68644736328125,11.935593828125,27.281247363281253,10.408678828125,31.06734736328125C8.881766828125,34.85354736328125,9.630970758125,39.177847363281245,12.342593828125,42.22974736328125C12.765273828125,42.69344736328125,13.482273828124999,42.73114736328125,13.951243828125001,42.314247363281254C14.420213828125,41.897447363281245,14.466803828125,41.18094736328125,14.055773828125,40.70684736328125C11.838563828125,38.21164736328125,11.296533828125,34.64564736328125,12.672213828124999,31.60434736328125C14.047883828125,28.56304736328125,17.083843828124998,26.61544736328125,20.421773828124998,26.63304736328125L20.427873828125,26.63304736328125L20.580673828125,26.64064736328125C21.209173828125,26.65564736328125,21.732473828125002,26.16174736328125,21.753673828125002,25.533447363281248C21.923073828125,19.74707736328125,26.662673828125,15.14420736328125,32.451473828125,15.14420736328125C38.240373828125,15.14420736328125,42.979973828125,19.74707736328125,43.149373828125,25.533447363281248C43.170573828125,26.16174736328125,43.693873828125,26.65564736328125,44.322273828125,26.64064736328125L44.524773828125,26.62994736328125C47.855573828125,26.62964736328125,50.876373828125,28.58394736328125,52.241473828125,31.62214736328125C53.606473828125,34.66034736328125,53.061573828125,38.21674736328125,50.849473828125,40.70684736328125C50.438473828125,41.18094736328125,50.485073828125,41.897447363281245,50.954073828125,42.31434736328125C51.422973828125,42.73114736328125,52.140073828125,42.69344736328125,52.562673828125,42.22974736328125C55.274373828125,39.177847363281245,56.023573828125,34.85354736328125,54.496573828125,31.06734736328125C52.969673828125,27.281247363281253,49.430173828125,24.68644736328125,45.359973828125,24.36964736328125Z" fill="#666666" fill-opacity="1"/></g><g><path d="M32.384169453125,43.192467089843745C33.017199453125,43.192467089843745,33.530369453125,42.67926708984375,33.530369453125,42.04626708984375L33.530369453125,28.92611708984375L37.656689453125,33.052427089843746C38.103489453125,33.50086708984375,38.829189453125,33.50246708984375,39.277889453125,33.056007089843746C39.726689453125,32.60953708984375,39.728889453125,31.88388708984375,39.282789453125,31.43475708984375L33.232349453124996,25.38435908984375C32.784759453125,24.93690408984375,32.059219453125,24.93690408984375,31.611629453125,25.38435908984375L25.490927453125,31.50505708984375C25.056563453125,31.95480708984375,25.062781453125,32.66968708984375,25.504903453125,33.11180708984375C25.947026453125,33.553927089843754,26.661909453125,33.56014708984375,27.111649453125,33.12578708984375L31.237969453125,28.99946708984375L31.237969453125,42.04626708984375C31.237969453125,42.67926708984375,31.751139453125,43.192467089843745,32.384169453125,43.192467089843745Z" fill="#1771B9" fill-opacity="1"/></g><g><path d="M43.7147203125,43.18485919921875C43.154920312499996,42.88982219921875,42.4619203125,43.10429129921875,42.1666203125,43.66397119921875C40.1704203125,47.45190919921875,36.2407203125,49.82293919921875,31.9589203125,49.82293919921875C27.677220312499998,49.82293919921875,23.7475403125,47.45190919921875,21.7513103125,43.66397119921875C21.4557703125,43.10419229921875,20.7624803125,42.88987219921875,20.2025953125,43.18521119921875C19.6427126125,43.48055019921875,19.4281503125,44.173769199218754,19.7232973125,44.73375919921875C22.1162703125,49.27384919921875,26.8264503125,52.11562919921875,31.958620312500003,52.11562919921875C37.0907203125,52.11562919921875,41.8009203125,49.27384919921875,44.1939203125,44.73375919921875C44.4894203125,44.17374919921875,44.2749203125,43.48018219921875,43.7147203125,43.18485919921875Z" fill="#666666" fill-opacity="1"/></g></g></g></svg>