<svg xmlns="http://www.w3.org/2000/svg" xmlns:xlink="http://www.w3.org/1999/xlink" fill="none" version="1.1" width="64" height="64" viewBox="0 0 64 64"><defs><clipPath id="master_svg0_1_0232"><rect x="0" y="0" width="64" height="64" rx="0"/></clipPath><clipPath id="master_svg1_1_24"><rect x="11" y="11" width="42" height="42" rx="0"/></clipPath></defs><g style="mix-blend-mode:passthrough" clip-path="url(#master_svg0_1_0232)"><g clip-path="url(#master_svg1_1_24)"><g><path d="M15.375,37.25L15.375,40.05C15.375,41.5375,16.25,42.85,17.65,43.375L30.775,48.1875C31.5625,48.45,32.4375,48.45,33.225,48.1875L46.35,43.375C47.75,42.85,48.625,41.5375,48.625,40.05L48.625,37.25L32,43.375L15.375,37.25Z" fill="#000000" fill-opacity="1"/></g><g><path d="M15.375,29.375L15.375,34.625L32,40.75L48.625,34.625L48.625,29.375L32,35.5L15.375,29.375Z" fill="#000000" fill-opacity="1"/></g><g><path d="M30.775,15.8124755859375L17.65,20.6249805859375C16.25,21.1499705859375,15.375,22.4624705859375,15.375,23.9499805859375L15.375,26.7500005859375L32,32.8750005859375L48.625,26.7500005859375L48.625,23.9499805859375C48.625,22.4624805859375,47.75,21.1499705859375,46.35,20.6249805859375L33.225,15.8124755859375C32.4375,15.5499756859375,31.5625,15.5499756859375,30.775,15.8124755859375ZM29.375,25.1749705859375C27.975,24.6499805859375,27.975,23.7749805859375,29.375,23.2499805859375C30.775,22.7249705859375,33.1375,22.7249705859375,34.5375,23.2499805859375C35.9375,23.7749805859375,35.9375,24.6499805859375,34.5375,25.1749705859375C33.1375,25.700000585937502,30.8625,25.700000585937502,29.375,25.1749705859375ZM43.9875,21.3249705859375L38.7375,23.2499805859375L37.1625,20.7124705859375L43.9875,21.3249705859375ZM32,17.2999705859375L36.2,18.8749705859375L32,20.3624805859375L27.8875,18.8749705859375L32,17.2999705859375ZM22.1125,20.5374805859375L24.65,20.8874705859375L26.75,20.3624705859375L26.75,21.3249705859375L28.9375,21.9374705859375L26.4875,22.1999705859375L25.7875,23.1624705859375L24.125,22.2874705859375L21.5,22.2874705859375L22.9875,21.4999705859375L22.1125,20.5374805859375Z" fill="#000000" fill-opacity="1"/></g></g></g></svg>